<svg width="48.000000" height="48.000000" viewBox="0 0 48 48" fill="none" xmlns="http://www.w3.org/2000/svg" xmlns:xlink="http://www.w3.org/1999/xlink">
	<desc>
			Created with Pixso.
	</desc>
	<defs>
		<clipPath id="clip3_458">
			<rect id="CreditCardIcon" width="48.000000" height="48.000000" fill="white" fill-opacity="0"/>
		</clipPath>
	</defs>
	<rect id="CreditCardIcon" width="48.000000" height="48.000000" fill="#FFFFFF" fill-opacity="0"/>
	<g clip-path="url(#clip3_458)">
		<circle id="Ellipse 1" cx="30.000000" cy="30.000000" r="18.000000" fill="#A6E8F6" fill-opacity="1.000000"/>
		<path id="Vector" d="M42 9L6 9C5.2 9 4.44 9.31 3.87 9.87C3.31 10.44 3 11.2 3 12L3 36C3 36.79 3.31 37.55 3.87 38.12C4.44 38.68 5.2 39 6 39L42 39C42.79 39 43.55 38.68 44.12 38.12C44.68 37.55 45 36.79 45 36L45 12C45 11.2 44.68 10.44 44.12 9.87C43.55 9.31 42.79 9 42 9ZM25.5 33L22.5 33C22.1 33 21.72 32.84 21.43 32.56C21.15 32.27 21 31.89 21 31.5C21 31.1 21.15 30.72 21.43 30.43C21.72 30.15 22.1 30 22.5 30L25.5 30C25.89 30 26.27 30.15 26.56 30.43C26.84 30.72 27 31.1 27 31.5C27 31.89 26.84 32.27 26.56 32.56C26.27 32.84 25.89 33 25.5 33ZM37.5 33L31.5 33C31.1 33 30.72 32.84 30.43 32.56C30.15 32.27 30 31.89 30 31.5C30 31.1 30.15 30.72 30.43 30.43C30.72 30.15 31.1 30 31.5 30L37.5 30C37.89 30 38.27 30.15 38.56 30.43C38.84 30.72 39 31.1 39 31.5C39 31.89 38.84 32.27 38.56 32.56C38.27 32.84 37.89 33 37.5 33ZM6 16.5L6 12L42 12L42 16.5L6 16.5Z" fill="#1D1E1C" fill-opacity="1.000000" fill-rule="nonzero"/>
	</g>
</svg>
