<svg width="48.000000" height="48.000000" viewBox="0 0 48 48" fill="none" xmlns="http://www.w3.org/2000/svg" xmlns:xlink="http://www.w3.org/1999/xlink">
	<desc>
			Created with Pixso.
	</desc>
	<defs/>
	<circle id="Ellipse 1" cx="30.000000" cy="30.000000" r="18.000000" fill="#D3F985" fill-opacity="1.000000"/>
	<path id="Vector" d="M41.52 21.7C41.61 22.46 41.66 23.23 41.66 24C41.66 27.36 40.72 30.65 38.95 33.51C37.17 36.37 34.63 38.67 31.61 40.15C28.59 41.64 25.22 42.24 21.87 41.91C18.53 41.57 15.34 40.3 12.68 38.25C17.4 37.09 22.96 34.7 28.14 31.72C33.66 28.55 38.32 25.02 41.52 21.7ZM45.62 11.37C44.19 8.9 40.4 8.34 34.65 9.75C31.99 7.69 28.8 6.42 25.46 6.08C22.11 5.74 18.73 6.35 15.72 7.84C12.7 9.32 10.15 11.62 8.38 14.48C6.6 17.33 5.66 20.63 5.66 24C5.66 24.77 5.71 25.54 5.81 26.3C0.62 31.68 0.69 34.87 1.71 36.62C2.66 38.28 4.66 39 7.28 39C9.1 38.96 10.92 38.71 12.68 38.25C11.71 37.5 10.82 36.65 10.02 35.73C6.78 36.27 4.77 35.92 4.3 35.11C4.03 34.64 4.18 33.75 4.72 32.67C5.25 31.66 5.9 30.72 6.64 29.85C6.65 29.85 6.65 29.84 6.64 29.84L6.64 29.85C7.39 32 8.53 34 10.02 35.72C13.95 35.07 19.67 33.11 26.64 29.11C31.91 26.09 37.54 21.87 40.68 18.15C39.94 15.99 38.8 14 37.31 12.27L37.29 12.24C37.29 12.25 37.3 12.26 37.31 12.27C39.97 11.83 42.44 11.86 43.03 12.88C43.2 13.17 43.22 13.61 43.06 14.19C42.74 15.37 41.9 16.73 40.69 18.15C41.09 19.3 41.36 20.49 41.52 21.7C43.86 19.26 45.42 16.95 45.95 14.97C46.32 13.59 46.21 12.38 45.62 11.37Z" fill="#1D1E1C" fill-opacity="1.000000" fill-rule="nonzero"/>
</svg>
