<svg width="1312.000000" height="35.000000" viewBox="0 0 1312 35" fill="none" xmlns="http://www.w3.org/2000/svg" xmlns:xlink="http://www.w3.org/1999/xlink">
	<desc>
			Created with Pixso.
	</desc>
	<defs>
		<clipPath id="clip3_399">
			<rect id="Logo" width="152.000000" height="19.000000" transform="translate(199.729370 8.000000)" fill="white" fill-opacity="0"/>
		</clipPath>
		<clipPath id="clip3_401">
			<rect id="Logo" width="144.941177" height="32.000000" transform="translate(399.729370 1.500000)" fill="white" fill-opacity="0"/>
		</clipPath>
		<clipPath id="clip3_414">
			<rect id="Logo" width="137.600006" height="32.000000" transform="translate(592.670593 1.500000)" fill="white" fill-opacity="0"/>
		</clipPath>
		<clipPath id="clip3_428">
			<rect id="Logo" width="154.000000" height="28.000000" transform="translate(778.270630 3.500000)" fill="white" fill-opacity="0"/>
		</clipPath>
		<clipPath id="clip3_431">
			<rect id="Logo" width="132.000000" height="35.000000" transform="translate(980.270630 0.000000)" fill="white" fill-opacity="0"/>
		</clipPath>
	</defs>
	<rect id="Logo" width="152.000000" height="19.000000" transform="translate(199.729370 8.000000)" fill="#FFFFFF" fill-opacity="0"/>
	<g clip-path="url(#clip3_399)">
		<path id="Vector" d="M275.42 24.37L270.3 24.37L270.3 10.68L275.42 10.68L275.42 24.37ZM270.8 23.87L274.92 23.87L274.92 11.18L270.8 11.18L270.8 23.87ZM282.54 24.37L277.52 24.37L277.52 10.68L288.01 10.68C289.51 10.56 291 10.98 292.22 11.87C292.74 12.35 293.15 12.94 293.41 13.6C293.66 14.27 293.76 14.98 293.7 15.69C293.77 16.91 293.39 18.11 292.61 19.06C291.69 20.11 290.17 20.65 288.07 20.67C287.55 20.69 283.6 20.67 282.54 20.67L282.54 24.37ZM278.02 23.87L282.04 23.87L282.04 20.17L282.29 20.17C282.34 20.17 287.47 20.18 288.06 20.17C290.01 20.15 291.41 19.67 292.23 18.73C292.92 17.87 293.26 16.78 293.19 15.68C293.25 15.05 293.17 14.41 292.94 13.82C292.72 13.22 292.36 12.69 291.89 12.25C290.76 11.44 289.38 11.06 288 11.18L278.02 11.18L278.02 23.87ZM286.94 17.6L282.01 17.6L282.01 13.87L286.98 13.87C287.33 13.82 287.69 13.87 288.02 13.99C288.35 14.12 288.65 14.33 288.88 14.6C289.09 14.95 289.18 15.35 289.16 15.75C289.18 16.13 289.1 16.5 288.92 16.83C288.69 17.12 288.38 17.34 288.03 17.47C287.69 17.61 287.31 17.65 286.94 17.59L286.94 17.6ZM282.51 17.1L286.94 17.1C287.76 17.1 288.27 16.93 288.5 16.58C288.62 16.32 288.68 16.04 288.66 15.75C288.68 15.46 288.62 15.16 288.47 14.89L288.47 14.89C288.23 14.54 287.76 14.37 286.98 14.37L282.51 14.37L282.51 17.1ZM302.82 24.57C298.33 24.57 295.65 23.46 294.63 21.16C294.47 20.72 294.35 20.26 294.29 19.79L294.25 19.5L299.59 19.5L299.63 19.71C299.67 19.92 299.76 20.12 299.89 20.3C300.1 20.55 300.81 20.98 303.14 20.98C305.95 20.98 305.95 20.49 305.95 20.22C305.95 19.77 305.63 19.62 303.34 19.38L302.9 19.34C302.04 19.26 300.95 19.15 300.45 19.11C296.25 18.73 294.38 17.42 294.38 14.88C294.38 12.21 297.57 10.48 302.51 10.48C306.54 10.48 309.13 11.54 310.22 13.64C310.48 14.13 310.65 14.65 310.73 15.2L310.77 15.48L305.42 15.48L305.4 15.26C305.38 15.08 305.3 14.91 305.18 14.78C304.98 14.51 304.35 14.07 302.39 14.07C299.98 14.07 299.65 14.38 299.65 14.71C299.65 15.15 300.41 15.31 302.85 15.57C303.86 15.65 305.5 15.82 306.06 15.89C309.58 16.27 311.15 17.55 311.15 20.02C311.15 22.09 309.71 24.57 302.82 24.57ZM294.84 20C294.89 20.33 294.97 20.65 295.09 20.97C296.02 23.05 298.55 24.07 302.82 24.07C306.4 24.07 310.66 23.37 310.66 20.02C310.66 17.83 309.26 16.74 306.01 16.39C305.45 16.32 303.82 16.15 302.81 16.07C300.21 15.79 299.15 15.64 299.15 14.71C299.15 13.75 300.29 13.57 302.39 13.57C304.05 13.57 305.12 13.87 305.58 14.48C305.7 14.62 305.8 14.8 305.85 14.98L310.19 14.98C310.1 14.6 309.96 14.22 309.78 13.87C308.78 11.95 306.34 10.98 302.51 10.98C297.87 10.98 294.88 12.51 294.88 14.88C294.88 17.14 296.56 18.26 300.5 18.61C301 18.65 302.09 18.76 302.95 18.84L303.39 18.88C305.51 19.1 306.45 19.24 306.45 20.22C306.45 21.27 305.24 21.48 303.15 21.48C301.21 21.48 299.98 21.19 299.51 20.62C299.37 20.43 299.26 20.22 299.19 20L294.84 20ZM320.65 24.55C315.43 24.55 312.55 22.44 312.55 18.61L312.55 10.68L317.6 10.68L317.6 18.61C317.6 19.92 318.78 20.68 320.83 20.68C322.79 20.68 324.01 19.89 324.01 18.63L324.01 10.68L329.01 10.68L329.01 19.03C329.01 22.54 325.96 24.55 320.65 24.55L320.65 24.55ZM313.05 11.18L313.05 18.61C313.05 23.35 317.81 24.05 320.65 24.05C323.59 24.05 328.52 23.4 328.52 19.03L328.52 11.18L324.52 11.18L324.52 18.63C324.52 20.18 323.07 21.18 320.84 21.18C318.51 21.18 317.11 20.22 317.11 18.61L317.11 11.18L313.05 11.18ZM350.2 24.37L345.43 24.37L345.43 18.19L342.72 24.37L338.57 24.37L335.89 18.2L335.89 24.37L331.1 24.37L331.1 10.68L337.4 10.68L340.67 18.23L344.1 10.68L350.2 10.68L350.2 24.37ZM345.93 23.87L349.7 23.87L349.7 11.18L344.41 11.18L340.65 19.46L337.07 11.18L331.6 11.18L331.6 23.87L335.39 23.87L335.39 15.79L338.89 23.87L342.39 23.87L345.92 15.81L345.93 23.87ZM205.78 10.93L201.22 10.93L201.22 24.12L213.81 24.12L213.81 20.61L205.78 20.61L205.78 10.93ZM223 10.63C217.19 10.63 214.13 13.39 214.13 17.43C214.13 22 217.34 24.32 223 24.32C229.23 24.32 231.85 21.63 231.85 17.43C231.85 13.17 228.9 10.63 223 10.63L223 10.63ZM222.98 14.06C223.38 14.06 223.78 14.08 224.17 14.13L219.08 19.22C218.84 18.67 218.72 18.08 218.73 17.49C218.73 15.42 219.77 14.06 222.98 14.06L222.98 14.06ZM223 20.95C222.62 20.95 222.24 20.93 221.86 20.88L226.96 15.78C227.19 16.32 227.3 16.9 227.28 17.48C227.28 19.49 226.32 20.94 223 20.94L223 20.95ZM240.88 19.15L245.56 19.15C245.49 19.47 245.35 19.78 245.14 20.04C244.17 20.83 242.93 21.21 241.68 21.11C241.05 21.18 240.42 21.11 239.82 20.91C239.22 20.71 238.67 20.38 238.21 19.95C237.73 19.26 237.51 18.42 237.57 17.58C237.49 16.7 237.73 15.83 238.26 15.11C238.91 14.37 240.02 14.05 241.65 14.05C242.69 13.97 243.72 14.24 244.59 14.81C244.86 15.03 245.07 15.32 245.18 15.65L249.52 15.65C249.49 15.11 249.36 14.57 249.14 14.07C248.1 11.96 245.68 10.7 241.56 10.7C237.98 10.7 235.58 11.79 234.25 13.43C233.38 14.62 232.93 16.07 232.98 17.55C232.92 19.06 233.36 20.55 234.22 21.78C235.54 23.48 237.87 24.32 240.68 24.32C242.54 24.45 244.4 23.93 245.92 22.84L246.04 24.12L249.65 24.12L249.65 16.31L240.88 16.31L240.88 19.15ZM259.9 10.63C254.08 10.63 251.03 13.38 251.03 17.43C251.03 22 254.23 24.32 259.9 24.32C266.13 24.32 268.75 21.63 268.75 17.43C268.75 13.17 265.79 10.63 259.9 10.63L259.9 10.63ZM259.88 14.05C260.26 14.05 260.65 14.08 261.03 14.12L255.96 19.2C255.73 18.66 255.61 18.07 255.63 17.49C255.62 15.42 256.67 14.05 259.88 14.05ZM259.9 20.94C259.5 20.94 259.11 20.92 258.72 20.87L263.84 15.76C264.08 16.3 264.2 16.89 264.18 17.48C264.18 19.49 263.22 20.94 259.9 20.94L259.9 20.94Z" fill="#1D1E1C" fill-opacity="1.000000" fill-rule="nonzero"/>
	</g>
	<rect id="Logo" width="144.941177" height="32.000000" transform="translate(399.729370 1.500000)" fill="#FFFFFF" fill-opacity="0"/>
	<g clip-path="url(#clip3_401)">
		<path id="Vector" d="M442.18 22.85C442.18 23.55 442.04 24.09 441.75 24.46C441.47 24.84 441 25.02 440.35 25.02C439.73 25.02 439.29 24.84 439.04 24.46C438.79 24.09 438.66 23.55 438.66 22.85L438.66 11.19C438.66 10.5 438.79 9.96 439.04 9.58C439.29 9.21 439.73 9.02 440.35 9.02C441 9.02 441.47 9.21 441.75 9.58C442.04 9.96 442.18 10.5 442.18 11.19L442.18 22.85Z" fill="#1D1E1C" fill-opacity="1.000000" fill-rule="nonzero"/>
		<path id="Vector" d="M443.25 19.47C443.25 18.69 443.37 17.95 443.62 17.26C443.88 16.56 444.26 15.95 444.77 15.43C445.29 14.91 445.93 14.49 446.69 14.18C447.46 13.87 448.37 13.72 449.4 13.72C450.4 13.72 451.27 13.86 452.04 14.15C452.8 14.44 453.45 14.84 453.97 15.35C454.49 15.86 454.89 16.47 455.16 17.17C455.43 17.87 455.57 18.63 455.57 19.47C455.57 20.24 455.44 20.97 455.18 21.66C454.93 22.34 454.54 22.95 454.02 23.47C453.51 23.98 452.87 24.4 452.09 24.7C451.32 25.01 450.43 25.16 449.4 25.16C448.4 25.16 447.51 25.01 446.73 24.73C445.97 24.43 445.33 24.03 444.8 23.52C444.29 23.01 443.9 22.41 443.63 21.72C443.38 21.02 443.25 20.27 443.25 19.47ZM446.92 19.47C446.92 19.95 446.97 20.41 447.05 20.86C447.14 21.29 447.28 21.67 447.47 22C447.67 22.33 447.93 22.6 448.25 22.8C448.56 22.99 448.95 23.08 449.4 23.08C449.82 23.08 450.19 23 450.5 22.82C450.81 22.64 451.07 22.4 451.27 22.08C451.47 21.76 451.63 21.38 451.73 20.94C451.83 20.49 451.88 20 451.88 19.47C451.88 18.98 451.84 18.52 451.74 18.09C451.65 17.65 451.51 17.26 451.31 16.93C451.11 16.59 450.86 16.33 450.54 16.13C450.23 15.94 449.85 15.84 449.4 15.84C448.95 15.84 448.57 15.93 448.26 16.12C447.94 16.31 447.68 16.58 447.48 16.91C447.29 17.24 447.14 17.62 447.05 18.06C446.97 18.51 446.92 18.97 446.92 19.47Z" fill="#1D1E1C" fill-opacity="1.000000" fill-rule="nonzero"/>
		<path id="Vector" d="M464.62 22.9C464.42 23.26 464.18 23.58 463.89 23.83C463.61 24.09 463.3 24.3 462.96 24.47C462.62 24.63 462.25 24.76 461.86 24.84C461.48 24.91 461.09 24.95 460.68 24.95C460.01 24.95 459.39 24.83 458.83 24.58C458.27 24.34 457.79 23.99 457.39 23.54C456.99 23.07 456.68 22.51 456.46 21.84C456.24 21.17 456.13 20.4 456.13 19.54C456.13 18.73 456.23 17.98 456.44 17.27C456.64 16.56 456.94 15.95 457.33 15.43C457.73 14.91 458.21 14.5 458.79 14.19C459.36 13.89 460.02 13.74 460.75 13.74C461.59 13.74 462.33 13.9 462.98 14.23C463.63 14.55 464.2 15.08 464.67 15.81L464.67 15.53C464.67 15 464.81 14.6 465.1 14.34C465.39 14.06 465.79 13.93 466.31 13.93C466.62 13.93 466.88 13.98 467.09 14.08C467.31 14.18 467.48 14.33 467.6 14.52C467.73 14.72 467.81 14.95 467.86 15.24C467.92 15.52 467.95 15.84 467.95 16.2L467.95 23.59C467.95 24.49 467.84 25.29 467.61 26C467.39 26.7 467.04 27.3 466.57 27.78C466.1 28.27 465.5 28.63 464.77 28.88C464.03 29.14 463.16 29.27 462.14 29.27C461.43 29.27 460.79 29.24 460.24 29.17C459.7 29.11 459.23 29.02 458.83 28.9C458.43 28.76 458.13 28.6 457.93 28.43C457.73 28.26 457.63 28.04 457.63 27.77C457.63 27.62 457.65 27.47 457.7 27.33C457.74 27.19 457.81 27.06 457.89 26.95C457.99 26.85 458.11 26.77 458.26 26.7C458.41 26.64 458.6 26.61 458.82 26.61C459.06 26.61 459.29 26.63 459.53 26.66C459.77 26.69 460.02 26.72 460.28 26.75C460.54 26.78 460.82 26.81 461.1 26.84C461.4 26.87 461.71 26.89 462.05 26.89C462.46 26.89 462.82 26.85 463.13 26.77C463.45 26.69 463.72 26.54 463.94 26.34C464.16 26.13 464.33 25.86 464.45 25.51C464.56 25.17 464.62 24.74 464.62 24.21L464.62 22.9ZM464.62 19.47C464.62 18.93 464.58 18.44 464.5 18C464.43 17.56 464.3 17.18 464.11 16.87C463.93 16.56 463.68 16.31 463.38 16.15C463.07 15.97 462.68 15.88 462.22 15.88C461.76 15.88 461.38 15.97 461.08 16.16C460.79 16.34 460.55 16.59 460.38 16.92C460.2 17.24 460.07 17.62 460 18.05C459.93 18.49 459.9 18.95 459.9 19.44C459.9 20.57 460.1 21.41 460.5 21.98C460.89 22.55 461.47 22.83 462.23 22.83C462.58 22.82 462.9 22.76 463.19 22.63C463.48 22.5 463.74 22.3 463.95 22.02C464.16 21.75 464.33 21.41 464.45 20.99C464.56 20.57 464.62 20.06 464.62 19.47Z" fill="#1D1E1C" fill-opacity="1.000000" fill-rule="nonzero"/>
		<path id="Vector" d="M468.97 19.47C468.97 18.69 469.09 17.95 469.34 17.26C469.6 16.56 469.98 15.95 470.49 15.43C471 14.91 471.64 14.49 472.41 14.18C473.18 13.87 474.08 13.72 475.12 13.72C476.11 13.72 476.99 13.86 477.76 14.15C478.52 14.44 479.16 14.84 479.69 15.35C480.21 15.86 480.61 16.47 480.88 17.17C481.15 17.87 481.29 18.63 481.29 19.47C481.29 20.24 481.16 20.97 480.9 21.66C480.64 22.34 480.26 22.95 479.74 23.47C479.23 23.98 478.58 24.4 477.81 24.7C477.04 25.01 476.14 25.16 475.12 25.16C474.11 25.16 473.22 25.01 472.45 24.73C471.69 24.43 471.04 24.03 470.52 23.52C470.01 23.01 469.62 22.41 469.35 21.72C469.09 21.02 468.97 20.27 468.97 19.47ZM472.64 19.47C472.64 19.95 472.68 20.41 472.77 20.86C472.86 21.29 473 21.67 473.19 22C473.39 22.33 473.65 22.6 473.96 22.8C474.28 22.99 474.66 23.08 475.12 23.08C475.54 23.08 475.9 23 476.21 22.82C476.53 22.64 476.79 22.4 476.98 22.08C477.19 21.76 477.34 21.38 477.45 20.94C477.55 20.49 477.6 20 477.6 19.47C477.6 18.98 477.55 18.52 477.46 18.09C477.37 17.65 477.23 17.26 477.03 16.93C476.83 16.59 476.57 16.33 476.26 16.13C475.95 15.94 475.57 15.84 475.12 15.84C474.67 15.84 474.29 15.93 473.97 16.12C473.66 16.31 473.4 16.58 473.2 16.91C473 17.24 472.86 17.62 472.77 18.06C472.68 18.51 472.64 18.97 472.64 19.47Z" fill="#1D1E1C" fill-opacity="1.000000" fill-rule="nonzero"/>
		<path id="Vector" d="M486.02 10C486.02 10.25 485.96 10.46 485.85 10.65C485.74 10.84 485.6 10.99 485.42 11.12C485.24 11.24 485.04 11.34 484.8 11.4C484.57 11.46 484.34 11.49 484.1 11.49C483.84 11.49 483.59 11.46 483.36 11.39C483.13 11.33 482.93 11.23 482.75 11.11C482.57 10.97 482.43 10.81 482.33 10.63C482.23 10.45 482.18 10.24 482.18 10C482.18 9.79 482.23 9.59 482.32 9.42C482.42 9.23 482.56 9.08 482.73 8.94C482.9 8.81 483.1 8.71 483.34 8.63C483.57 8.56 483.83 8.52 484.11 8.52C484.35 8.52 484.59 8.56 484.81 8.62C485.05 8.69 485.25 8.79 485.43 8.91C485.61 9.04 485.75 9.19 485.85 9.37C485.96 9.56 486.02 9.77 486.02 10ZM485.85 22.85C485.85 23.55 485.71 24.09 485.42 24.46C485.14 24.84 484.67 25.02 484.02 25.02C483.4 25.02 482.96 24.84 482.71 24.46C482.46 24.09 482.33 23.55 482.33 22.85L482.33 16.1C482.33 15.4 482.46 14.87 482.71 14.49C482.96 14.12 483.4 13.93 484.02 13.93C484.67 13.93 485.14 14.12 485.42 14.49C485.71 14.87 485.85 15.4 485.85 16.1L485.85 22.85Z" fill="#1D1E1C" fill-opacity="1.000000" fill-rule="nonzero"/>
		<path id="Vector" d="M490.92 19.44C490.92 19.94 490.96 20.4 491.03 20.82C491.11 21.25 491.25 21.62 491.43 21.95C491.62 22.26 491.87 22.51 492.18 22.7C492.5 22.88 492.89 22.97 493.35 22.97C493.77 22.97 494.13 22.88 494.42 22.71C494.71 22.52 494.95 22.27 495.12 21.96C495.3 21.63 495.43 21.26 495.5 20.82C495.58 20.39 495.62 19.92 495.62 19.41C495.62 19.01 495.59 18.59 495.53 18.18C495.47 17.75 495.36 17.36 495.2 17.02C495.04 16.67 494.82 16.39 494.53 16.17C494.24 15.95 493.87 15.84 493.4 15.84C492.94 15.84 492.55 15.91 492.22 16.06C491.91 16.2 491.65 16.43 491.45 16.73C491.26 17.03 491.12 17.41 491.04 17.87C490.96 18.31 490.92 18.84 490.92 19.44ZM490.91 16.1C491.09 15.71 491.33 15.37 491.62 15.08C491.9 14.78 492.22 14.54 492.57 14.34C492.91 14.14 493.27 13.99 493.65 13.9C494.03 13.79 494.41 13.74 494.78 13.74C495.46 13.74 496.07 13.89 496.61 14.19C497.16 14.5 497.62 14.91 498 15.43C498.39 15.94 498.69 16.55 498.9 17.26C499.1 17.96 499.21 18.71 499.21 19.51C499.21 20.34 499.09 21.1 498.87 21.79C498.66 22.48 498.36 23.08 497.96 23.58C497.57 24.07 497.1 24.46 496.55 24.74C496 25.02 495.4 25.16 494.73 25.16C493.9 25.16 493.17 24.97 492.52 24.58C491.87 24.2 491.34 23.66 490.91 22.97L490.91 26.94C490.91 27.64 490.77 28.18 490.48 28.55C490.2 28.93 489.73 29.12 489.08 29.12C488.46 29.12 488.02 28.93 487.77 28.55C487.52 28.18 487.39 27.64 487.39 26.94L487.39 16.1C487.39 15.4 487.52 14.87 487.77 14.49C488.02 14.12 488.46 13.93 489.08 13.93C489.73 13.93 490.2 14.12 490.48 14.49C490.77 14.87 490.91 15.4 490.91 16.1Z" fill="#1D1E1C" fill-opacity="1.000000" fill-rule="nonzero"/>
		<path id="Vector" d="M503.09 16.88C503.09 17.17 503.21 17.4 503.46 17.56C503.71 17.71 504.06 17.84 504.5 17.94C504.92 18.04 505.35 18.13 505.79 18.22C506.23 18.31 506.66 18.41 507.08 18.53C507.5 18.64 507.89 18.77 508.26 18.92C508.63 19.08 508.95 19.27 509.23 19.51C509.51 19.74 509.73 20.02 509.89 20.35C510.05 20.67 510.13 21.06 510.13 21.52C510.13 22.09 510.02 22.6 509.78 23.05C509.55 23.49 509.21 23.87 508.78 24.17C508.35 24.48 507.84 24.72 507.24 24.89C506.65 25.06 505.99 25.15 505.27 25.16C504.59 25.16 503.93 25.11 503.29 25.02C502.66 24.94 502.1 24.81 501.61 24.64C501.12 24.46 500.73 24.24 500.44 23.99C500.14 23.72 500 23.41 500 23.06C500 22.75 500.1 22.51 500.3 22.34C500.49 22.17 500.75 22.09 501.06 22.09C501.17 22.09 501.31 22.11 501.48 22.16C501.64 22.2 501.81 22.26 502 22.32C502.2 22.39 502.4 22.46 502.61 22.54C502.83 22.62 503.06 22.68 503.29 22.74C503.59 22.82 503.89 22.89 504.2 22.94C504.52 22.98 504.84 23.01 505.17 23.01C505.38 23.01 505.58 22.99 505.78 22.95C505.98 22.91 506.15 22.84 506.31 22.76C506.47 22.67 506.6 22.56 506.7 22.43C506.81 22.3 506.87 22.14 506.89 21.95C506.91 21.9 506.93 21.86 506.95 21.81C506.96 21.77 506.97 21.72 506.97 21.66C506.97 21.45 506.87 21.27 506.68 21.11C506.5 20.95 506.24 20.82 505.9 20.72C505.33 20.59 504.79 20.47 504.28 20.36C503.76 20.25 503.28 20.13 502.84 20.01C502.41 19.88 502.01 19.74 501.65 19.58C501.3 19.41 501 19.22 500.75 18.98C500.51 18.74 500.31 18.46 500.17 18.13C500.04 17.8 499.98 17.4 499.98 16.93C499.98 16.42 500.09 15.97 500.32 15.57C500.55 15.17 500.89 14.83 501.32 14.56C501.75 14.29 502.28 14.08 502.9 13.94C503.52 13.79 504.21 13.72 504.99 13.72C506.39 13.72 507.45 13.89 508.18 14.23C508.92 14.56 509.28 14.99 509.28 15.53C509.28 15.83 509.18 16.06 508.99 16.22C508.79 16.38 508.55 16.45 508.27 16.45C508.12 16.45 507.97 16.43 507.81 16.38C507.65 16.32 507.46 16.26 507.24 16.19C507.02 16.12 506.76 16.05 506.45 16C506.15 15.94 505.77 15.91 505.32 15.91C504.99 15.91 504.68 15.93 504.4 15.96C504.13 15.99 503.89 16.04 503.69 16.11C503.5 16.19 503.35 16.29 503.24 16.41C503.14 16.54 503.09 16.69 503.09 16.88Z" fill="#1D1E1C" fill-opacity="1.000000" fill-rule="nonzero"/>
		<path id="Vector" d="M514.61 20.93C514.61 21.28 514.65 21.58 514.74 21.84C514.84 22.09 514.97 22.31 515.13 22.49C515.29 22.66 515.48 22.79 515.69 22.87C515.91 22.95 516.15 23 516.4 23C516.69 23 516.97 22.95 517.25 22.86C517.52 22.77 517.76 22.64 517.96 22.45C518.18 22.27 518.34 22.04 518.47 21.76C518.59 21.48 518.66 21.15 518.66 20.78L518.66 16.1C518.66 15.4 518.78 14.87 519.03 14.49C519.29 14.12 519.73 13.93 520.34 13.93C521 13.93 521.47 14.12 521.75 14.49C522.03 14.87 522.18 15.4 522.18 16.1L522.18 22.85C522.18 23.55 522.03 24.09 521.75 24.46C521.47 24.84 521 25.02 520.34 25.02C519.73 25.02 519.29 24.84 519.03 24.46C518.78 24.09 518.66 23.55 518.66 22.85C518.5 23.19 518.3 23.5 518.05 23.78C517.81 24.06 517.52 24.3 517.19 24.51C516.87 24.7 516.51 24.86 516.11 24.97C515.72 25.08 515.3 25.13 514.84 25.13C514.35 25.13 513.87 25.05 513.42 24.88C512.97 24.7 512.57 24.45 512.23 24.11C511.88 23.76 511.61 23.34 511.4 22.83C511.19 22.32 511.09 21.73 511.09 21.05L511.09 16.1C511.09 15.4 511.22 14.87 511.47 14.49C511.72 14.12 512.16 13.93 512.78 13.93C513.43 13.93 513.9 14.12 514.18 14.49C514.47 14.87 514.61 15.4 514.61 16.1L514.61 20.93Z" fill="#1D1E1C" fill-opacity="1.000000" fill-rule="nonzero"/>
		<path id="Vector" d="M523.77 16.1C523.77 15.4 523.9 14.87 524.15 14.49C524.4 14.12 524.84 13.93 525.46 13.93C526.12 13.93 526.58 14.12 526.86 14.49C527.15 14.87 527.29 15.4 527.29 16.1C527.44 15.75 527.64 15.43 527.89 15.14C528.14 14.85 528.44 14.6 528.76 14.39C529.09 14.19 529.45 14.03 529.83 13.92C530.21 13.8 530.61 13.74 531.02 13.74C531.4 13.74 531.78 13.79 532.14 13.9C532.52 13.99 532.87 14.15 533.18 14.37C533.5 14.58 533.79 14.86 534.03 15.19C534.27 15.52 534.46 15.91 534.59 16.38C534.82 15.88 535.09 15.47 535.4 15.13C535.71 14.79 536.04 14.52 536.4 14.31C536.76 14.11 537.14 13.96 537.53 13.87C537.92 13.79 538.32 13.74 538.72 13.74C539.19 13.74 539.64 13.83 540.06 14C540.5 14.16 540.88 14.42 541.2 14.77C541.53 15.11 541.79 15.54 541.98 16.06C542.18 16.57 542.28 17.18 542.28 17.87L542.28 22.85C542.28 23.55 542.14 24.09 541.85 24.46C541.57 24.84 541.1 25.02 540.45 25.02C539.83 25.02 539.39 24.84 539.14 24.46C538.89 24.09 538.76 23.55 538.76 22.85L538.76 18.02C538.76 17.69 538.72 17.4 538.63 17.14C538.54 16.87 538.42 16.65 538.25 16.48C538.1 16.29 537.92 16.16 537.7 16.07C537.49 15.97 537.26 15.93 537.02 15.93C536.72 15.93 536.43 15.97 536.16 16.07C535.89 16.16 535.65 16.31 535.44 16.51C535.24 16.71 535.08 16.96 534.96 17.27C534.84 17.58 534.78 17.95 534.78 18.38L534.78 22.85C534.78 23.55 534.64 24.09 534.35 24.46C534.07 24.84 533.6 25.02 532.95 25.02C532.33 25.02 531.89 24.84 531.64 24.46C531.39 24.09 531.26 23.55 531.26 22.85L531.26 18.23C531.26 17.47 531.1 16.9 530.79 16.51C530.48 16.12 530.06 15.93 529.52 15.93C529.2 15.93 528.91 15.98 528.64 16.08C528.36 16.18 528.13 16.33 527.93 16.53C527.73 16.73 527.57 16.98 527.46 17.27C527.35 17.56 527.29 17.9 527.29 18.29L527.29 22.85C527.29 23.55 527.15 24.09 526.86 24.46C526.58 24.84 526.12 25.02 525.46 25.02C524.84 25.02 524.4 24.84 524.15 24.46C523.9 24.09 523.77 23.55 523.77 22.85L523.77 16.1Z" fill="#1D1E1C" fill-opacity="1.000000" fill-rule="nonzero"/>
		<path id="Vector" d="M415.72 23.14C412.61 23.14 410.08 20.61 410.08 17.5C410.08 14.38 412.61 11.85 415.72 11.85C418.84 11.85 421.37 14.38 421.37 17.5C421.37 20.61 418.84 23.14 415.72 23.14Z" fill="#1D1E1C" fill-opacity="1.000000" fill-rule="nonzero"/>
		<path id="Vector" d="M404.78 19.42C403.15 19.71 402.03 21.29 402.65 22.83C403.53 24.98 404.93 26.89 406.75 28.39C409.34 30.53 412.61 31.67 415.97 31.61C419.33 31.55 422.56 30.3 425.08 28.07C426.84 26.51 428.17 24.55 428.97 22.37C429.55 20.81 428.37 19.27 426.73 19.04C425.08 18.81 423.6 20.01 422.79 21.46C422.35 22.24 421.78 22.96 421.09 23.56C419.65 24.84 417.79 25.56 415.87 25.59C413.94 25.63 412.06 24.97 410.57 23.75C409.87 23.16 409.27 22.47 408.8 21.7C407.94 20.28 406.42 19.14 404.78 19.42Z" fill="#1D1E1C" fill-opacity="1.000000" fill-rule="nonzero"/>
		<path id="Vector" d="M429.73 19.26C429.81 18.68 429.84 18.09 429.84 17.5C429.84 9.7 423.52 3.38 415.72 3.38C407.93 3.38 401.61 9.7 401.61 17.5C401.61 18.26 401.67 19.01 401.79 19.75C402.43 18.86 403.45 18.23 404.54 18.03C405.72 17.83 406.8 18.11 407.71 18.65C407.65 18.27 407.62 17.89 407.62 17.5C407.62 13.02 411.25 9.39 415.72 9.39C420.2 9.39 423.82 13.02 423.82 17.5C423.82 17.79 423.81 18.08 423.78 18.37C424.67 17.8 425.73 17.48 426.92 17.64C428.02 17.8 429.05 18.4 429.73 19.26Z" fill="#1D1E1C" fill-opacity="1.000000" fill-rule="nonzero"/>
	</g>
	<rect id="Logo" width="137.600006" height="32.000000" transform="translate(592.670593 1.500000)" fill="#FFFFFF" fill-opacity="0"/>
	<g clip-path="url(#clip3_414)">
		<path id="Vector" d="M631.9 24.7L640.98 24.7L640.98 22.11L634.66 22.11L634.66 10.03L631.9 10.03L631.9 24.7Z" fill="#1D1E1C" fill-opacity="1.000000" fill-rule="nonzero"/>
		<path id="Vector" d="M646.44 25C647.53 25 648.5 24.76 649.34 24.27C650.18 23.77 650.83 23.09 651.3 22.22C651.78 21.35 652.01 20.34 652.01 19.2C652.01 18.06 651.78 17.06 651.31 16.19C650.84 15.32 650.19 14.63 649.35 14.14C648.51 13.64 647.54 13.39 646.44 13.39C645.35 13.39 644.39 13.64 643.55 14.13C642.72 14.62 642.06 15.3 641.59 16.17C641.11 17.04 640.88 18.05 640.88 19.2C640.88 20.33 641.11 21.34 641.57 22.21C642.04 23.08 642.69 23.76 643.52 24.26C644.36 24.75 645.33 25 646.44 25ZM646.44 22.41C645.57 22.41 644.92 22.13 644.47 21.55C644.03 20.97 643.81 20.18 643.81 19.2C643.81 18.24 644.02 17.47 644.44 16.88C644.87 16.28 645.53 15.98 646.44 15.98C647.31 15.98 647.97 16.27 648.41 16.86C648.86 17.44 649.08 18.22 649.08 19.2C649.08 20.14 648.86 20.91 648.42 21.52C647.99 22.12 647.32 22.41 646.44 22.41Z" fill="#1D1E1C" fill-opacity="1.000000" fill-rule="nonzero"/>
		<path id="Vector" d="M657.49 25C658.01 25 658.48 24.94 658.92 24.82C659.36 24.7 659.76 24.52 660.12 24.3L660.12 25.41C660.13 25.82 660.03 26.15 659.8 26.43C659.59 26.7 659.29 26.91 658.93 27.05C658.56 27.19 658.17 27.26 657.76 27.26C657.37 27.26 657.01 27.18 656.68 27.01C656.35 26.84 656.1 26.59 655.92 26.26L653.36 27.51C653.78 28.22 654.38 28.79 655.16 29.23C655.94 29.67 656.8 29.89 657.74 29.89C658.54 29.89 659.29 29.78 659.99 29.56C660.68 29.35 661.26 29.03 661.74 28.59C662.22 28.16 662.55 27.61 662.73 26.93C662.79 26.7 662.83 26.46 662.85 26.21C662.87 25.97 662.89 25.72 662.89 25.45L662.89 13.7L660.46 13.7L660.46 14.31C660.09 14.02 659.67 13.79 659.19 13.64C658.72 13.47 658.2 13.39 657.63 13.39C656.58 13.39 655.67 13.64 654.89 14.15C654.1 14.65 653.5 15.34 653.06 16.21C652.63 17.08 652.42 18.08 652.42 19.2C652.42 20.3 652.63 21.28 653.05 22.16C653.48 23.04 654.07 23.73 654.83 24.24C655.59 24.75 656.48 25 657.49 25ZM657.94 22.54C657.34 22.54 656.85 22.39 656.47 22.09C656.09 21.79 655.81 21.39 655.63 20.89C655.45 20.38 655.35 19.81 655.35 19.2C655.35 18.59 655.45 18.03 655.64 17.53C655.83 17.02 656.12 16.61 656.51 16.32C656.91 16.01 657.42 15.86 658.04 15.86C658.91 15.86 659.53 16.17 659.9 16.78C660.28 17.39 660.46 18.2 660.46 19.2C660.46 20.19 660.27 21 659.89 21.62C659.52 22.23 658.87 22.54 657.94 22.54Z" fill="#1D1E1C" fill-opacity="1.000000" fill-rule="nonzero"/>
		<path id="Vector" d="M669.47 25C670.57 25 671.53 24.76 672.37 24.27C673.21 23.77 673.86 23.09 674.33 22.22C674.81 21.35 675.05 20.34 675.05 19.2C675.05 18.06 674.81 17.06 674.34 16.19C673.87 15.32 673.22 14.63 672.38 14.14C671.54 13.64 670.57 13.39 669.47 13.39C668.38 13.39 667.42 13.64 666.58 14.13C665.75 14.62 665.09 15.3 664.62 16.17C664.14 17.04 663.91 18.05 663.91 19.2C663.91 20.33 664.14 21.34 664.6 22.21C665.07 23.08 665.72 23.76 666.55 24.26C667.39 24.75 668.36 25 669.47 25ZM669.47 22.41C668.6 22.41 667.95 22.13 667.5 21.55C667.06 20.97 666.84 20.18 666.84 19.2C666.84 18.24 667.05 17.47 667.47 16.88C667.9 16.28 668.56 15.98 669.47 15.98C670.34 15.98 671 16.27 671.44 16.86C671.89 17.44 672.11 18.22 672.11 19.2C672.11 20.14 671.89 20.91 671.45 21.52C671.02 22.12 670.36 22.41 669.47 22.41Z" fill="#1D1E1C" fill-opacity="1.000000" fill-rule="nonzero"/>
		<path id="Vector" d="M676.27 12.17L679.04 12.17L679.04 9.73L676.27 9.73L676.27 12.17ZM676.27 24.7L679.04 24.7L679.04 13.7L676.27 13.7L676.27 24.7Z" fill="#1D1E1C" fill-opacity="1.000000" fill-rule="nonzero"/>
		<path id="Vector" d="M680.85 29.58L683.64 29.58L683.64 24.3C684 24.52 684.39 24.7 684.83 24.82C685.27 24.94 685.75 25 686.26 25C687.27 25 688.16 24.75 688.92 24.24C689.68 23.73 690.27 23.04 690.69 22.16C691.12 21.28 691.33 20.3 691.33 19.2C691.33 18.08 691.12 17.08 690.68 16.21C690.25 15.34 689.65 14.65 688.87 14.15C688.09 13.64 687.17 13.39 686.12 13.39C685.55 13.39 685.03 13.47 684.55 13.64C684.08 13.79 683.66 14.02 683.29 14.31L683.29 13.7L680.85 13.7L680.85 29.58ZM685.81 22.54C684.89 22.54 684.24 22.23 683.86 21.62C683.48 21 683.29 20.19 683.29 19.2C683.29 18.2 683.48 17.39 683.85 16.78C684.23 16.17 684.85 15.86 685.71 15.86C686.33 15.86 686.84 16.01 687.23 16.32C687.63 16.61 687.93 17.02 688.12 17.53C688.31 18.03 688.4 18.59 688.4 19.2C688.4 19.81 688.31 20.38 688.13 20.89C687.94 21.39 687.66 21.79 687.28 22.09C686.9 22.39 686.41 22.54 685.81 22.54Z" fill="#1D1E1C" fill-opacity="1.000000" fill-rule="nonzero"/>
		<path id="Vector" d="M696.35 25C697.79 25 698.92 24.68 699.73 24.03C700.55 23.39 700.95 22.5 700.95 21.38C700.95 20.52 700.69 19.85 700.16 19.35C699.64 18.85 698.75 18.44 697.49 18.12C696.64 17.9 696 17.72 695.58 17.59C695.16 17.45 694.89 17.32 694.75 17.19C694.62 17.06 694.56 16.9 694.56 16.71C694.56 16.39 694.71 16.15 695.02 15.98C695.33 15.81 695.74 15.74 696.25 15.78C697.33 15.86 697.92 16.32 698.02 17.16L700.85 16.65C700.71 15.65 700.22 14.86 699.38 14.28C698.55 13.69 697.48 13.39 696.19 13.39C694.86 13.39 693.79 13.71 693 14.33C692.21 14.95 691.81 15.8 691.81 16.86C691.81 17.7 692.08 18.36 692.63 18.85C693.18 19.33 694.13 19.75 695.47 20.09C696.27 20.3 696.85 20.47 697.23 20.6C697.61 20.73 697.85 20.86 697.96 21C698.07 21.13 698.12 21.3 698.12 21.52C698.12 21.86 697.99 22.14 697.71 22.33C697.44 22.52 697.06 22.62 696.55 22.62C695.94 22.62 695.44 22.47 695.04 22.18C694.64 21.89 694.39 21.48 694.27 20.97L691.44 21.4C691.63 22.54 692.14 23.43 692.99 24.06C693.85 24.69 694.97 25 696.35 25Z" fill="#1D1E1C" fill-opacity="1.000000" fill-rule="nonzero"/>
		<path id="Vector" d="M706.06 25.02C706.86 25.02 707.55 24.89 708.14 24.62C708.73 24.36 709.22 24.01 709.63 23.56L709.63 24.7L712.07 24.7L712.07 13.7L709.28 13.7L709.28 19.28C709.28 19.96 709.2 20.51 709.04 20.93C708.9 21.34 708.7 21.66 708.46 21.87C708.23 22.09 707.97 22.23 707.7 22.3C707.43 22.38 707.17 22.41 706.94 22.41C706.35 22.41 705.89 22.28 705.56 22.02C705.24 21.75 705.01 21.42 704.87 21.03C704.73 20.64 704.64 20.25 704.62 19.86C704.59 19.46 704.57 19.14 704.57 18.89L704.57 13.7L701.76 13.7L701.76 19.87C701.76 20.05 701.78 20.34 701.81 20.74C701.83 21.14 701.91 21.59 702.04 22.08C702.17 22.56 702.38 23.03 702.68 23.47C702.99 23.92 703.41 24.29 703.95 24.58C704.5 24.87 705.2 25.02 706.06 25.02Z" fill="#1D1E1C" fill-opacity="1.000000" fill-rule="nonzero"/>
		<path id="Vector" d="M713.67 24.7L716.46 24.7L716.46 18.04C716.46 17.4 716.63 16.89 716.98 16.5C717.33 16.1 717.8 15.9 718.38 15.9C718.98 15.9 719.45 16.1 719.79 16.51C720.14 16.91 720.31 17.47 720.31 18.2L720.31 24.7L723.08 24.7L723.08 18.04C723.08 17.4 723.25 16.89 723.6 16.5C723.95 16.1 724.42 15.9 724.99 15.9C725.6 15.9 726.07 16.1 726.41 16.51C726.76 16.91 726.93 17.47 726.93 18.2L726.93 24.7L729.7 24.7L729.7 17.47C729.7 16.26 729.38 15.29 728.73 14.55C728.09 13.81 727.15 13.43 725.89 13.43C725.18 13.43 724.54 13.59 723.95 13.89C723.35 14.2 722.88 14.62 722.53 15.14C722.25 14.63 721.84 14.21 721.31 13.9C720.78 13.59 720.12 13.43 719.33 13.43C718.67 13.43 718.06 13.57 717.5 13.83C716.94 14.09 716.48 14.45 716.12 14.9L716.12 13.7L713.67 13.7L713.67 24.7Z" fill="#1D1E1C" fill-opacity="1.000000" fill-rule="nonzero"/>
		<path id="Vector" d="M608.67 1.5C599.83 1.5 592.67 8.66 592.67 17.5C601.5 17.5 608.67 10.33 608.67 1.5Z" fill="#1D1E1C" fill-opacity="1.000000" fill-rule="nonzero"/>
		<path id="Vector" d="M608.67 33.5C617.5 33.5 624.67 26.33 624.67 17.5C615.83 17.5 608.67 24.66 608.67 33.5Z" fill="#1D1E1C" fill-opacity="1.000000" fill-rule="nonzero"/>
		<path id="Vector" d="M608.67 1.5C617.5 1.5 624.67 8.66 624.67 17.5C615.83 17.5 608.67 10.33 608.67 1.5Z" fill="#1D1E1C" fill-opacity="1.000000" fill-rule="nonzero"/>
		<path id="Vector" d="M608.67 33.5C599.83 33.5 592.67 26.33 592.67 17.5C601.5 17.5 608.67 24.66 608.67 33.5Z" fill="#1D1E1C" fill-opacity="1.000000" fill-rule="nonzero"/>
	</g>
	<rect id="Logo" width="154.000000" height="28.000000" transform="translate(778.270630 3.500000)" fill="#FFFFFF" fill-opacity="0"/>
	<g clip-path="url(#clip3_428)">
		<path id="Vector" d="M792.27 31.5C800 31.5 806.27 25.23 806.27 17.5L806.27 7.69C806.27 6.58 805.82 5.51 805.04 4.73C804.25 3.94 803.18 3.5 802.07 3.5L792.97 3.5L792.97 9.64C792.97 11.04 793.05 12.49 793.79 13.68C794.31 14.54 795.02 15.27 795.85 15.83C796.68 16.39 797.63 16.76 798.62 16.92L798.89 16.97C799 17 799.09 17.07 799.16 17.17C799.23 17.26 799.27 17.38 799.27 17.5C799.27 17.61 799.23 17.73 799.16 17.82C799.09 17.92 799 17.99 798.89 18.02L798.62 18.07C797.17 18.3 795.84 18.99 794.8 20.03C793.76 21.06 793.08 22.4 792.84 23.85L792.8 24.12C792.76 24.23 792.69 24.32 792.59 24.39C792.5 24.46 792.38 24.5 792.27 24.5C792.15 24.5 792.04 24.46 791.94 24.39C791.85 24.32 791.77 24.23 791.74 24.12L791.69 23.85C791.53 22.86 791.16 21.91 790.6 21.08C790.04 20.25 789.31 19.54 788.45 19.02C787.26 18.28 785.81 18.2 784.41 18.2L778.28 18.2C778.65 25.6 784.77 31.5 792.27 31.5Z" fill="#1D1E1C" fill-opacity="1.000000" fill-rule="nonzero"/>
		<path id="Vector" d="M778.27 16.79L784.41 16.79C785.81 16.79 787.26 16.71 788.45 15.97C789.39 15.4 790.17 14.62 790.75 13.68C791.48 12.49 791.57 11.04 791.57 9.64L791.57 3.5L782.47 3.5C781.35 3.5 780.28 3.94 779.5 4.73C778.71 5.51 778.27 6.58 778.27 7.69L778.27 16.79ZM810.78 4.89C810.78 5.27 810.64 5.62 810.37 5.88C810.11 6.15 809.76 6.3 809.38 6.3C809.01 6.3 808.66 6.15 808.39 5.88C808.13 5.62 807.98 5.27 807.98 4.89C807.98 4.52 808.13 4.17 808.39 3.91C808.66 3.64 809.01 3.5 809.38 3.5C809.76 3.5 810.11 3.64 810.37 3.91C810.64 4.17 810.78 4.52 810.78 4.89ZM926.46 11.97C930.38 11.97 932.27 14.7 932.27 17.87L932.27 23.81L928.17 23.81L928.17 18.57C928.17 17.14 927.65 15.95 926.15 15.95C924.64 15.95 924.14 17.14 924.14 18.57L924.14 23.81L920.05 23.81L920.05 18.57C920.05 17.14 919.55 15.95 918.04 15.95C916.54 15.95 916.02 17.14 916.02 18.57L916.02 23.81L911.92 23.81L911.92 17.87C911.92 14.7 913.81 11.97 917.73 11.97C919.87 11.97 921.41 12.81 922.12 14.2C922.87 12.81 924.51 11.97 926.46 11.97L926.46 11.97ZM904.57 20.17C905.88 20.17 906.45 18.96 906.45 17.53L906.45 12.42L910.55 12.42L910.55 18.03C910.55 21.38 908.59 24.16 904.57 24.16C900.54 24.16 898.58 21.38 898.58 18.03L898.58 12.42L902.68 12.42L902.68 17.53C902.68 18.96 903.24 20.17 904.57 20.17ZM892.56 24.18C889.99 24.18 888.33 23.29 887.35 21.56L890.31 19.9C890.72 20.62 891.33 20.99 892.35 20.99C893.2 20.99 893.58 20.69 893.58 20.33C893.58 18.94 887.58 20.35 887.58 15.93C887.58 13.79 889.4 12.06 892.49 12.06C895.2 12.06 896.68 13.38 897.34 14.66L894.38 16.34C894.13 15.66 893.35 15.25 892.58 15.25C891.99 15.25 891.67 15.5 891.67 15.84C891.67 17.25 897.68 15.95 897.68 20.24C897.68 22.63 895.33 24.18 892.56 24.18ZM878.25 29.05L874.15 29.05L874.15 18.1C874.15 14.61 876.77 12.08 880.41 12.08C883.96 12.08 886.67 14.79 886.67 18.1C886.67 21.74 884.26 24.16 880.64 24.16C879.8 24.16 878.95 23.9 878.25 23.52L878.25 29.05ZM880.41 20.31C881.71 20.31 882.57 19.3 882.57 18.12C882.57 16.91 881.71 15.93 880.41 15.93C879.11 15.93 878.25 16.91 878.25 18.12C878.25 19.3 879.11 20.31 880.41 20.31ZM870.05 11.22C868.71 11.22 867.59 10.1 867.59 8.76C867.59 7.41 868.71 6.3 870.05 6.3C871.39 6.3 872.51 7.41 872.51 8.76C872.51 10.1 871.39 11.22 870.05 11.22ZM868 12.42L872.1 12.42L872.1 23.81L868 23.81L868 12.42ZM860.15 24.16C856.6 24.16 853.89 21.42 853.89 18.1C853.89 14.79 856.6 12.06 860.15 12.06C863.69 12.06 866.4 14.79 866.4 18.1C866.4 21.42 863.69 24.16 860.15 24.16ZM860.15 20.31C861.44 20.31 862.31 19.3 862.31 18.12C862.31 16.91 861.44 15.91 860.15 15.91C858.85 15.91 857.98 16.91 857.98 18.12C857.98 19.3 858.85 20.31 860.15 20.31ZM846.15 29.39C843.33 29.39 841.29 28.14 840.24 25.91L843.63 24.09C843.99 24.86 844.68 25.66 846.09 25.66C847.57 25.66 848.54 24.72 848.66 23.08C848.11 23.56 847.25 23.93 845.95 23.93C842.79 23.93 840.24 21.49 840.24 18.07C840.24 14.77 842.95 12.08 846.5 12.08C850.14 12.08 852.75 14.61 852.75 18.1L852.75 22.61C852.75 26.71 849.91 29.39 846.15 29.39ZM846.43 20.08C847.66 20.08 848.59 19.23 848.59 17.98C848.59 16.75 847.66 15.93 846.43 15.93C845.22 15.93 844.27 16.75 844.27 17.98C844.27 19.24 845.22 20.08 846.43 20.08L846.43 20.08ZM833.29 24.16C829.74 24.16 827.03 21.42 827.03 18.1C827.03 14.79 829.74 12.06 833.29 12.06C836.84 12.06 839.55 14.79 839.55 18.1C839.55 21.42 836.84 24.16 833.29 24.16ZM833.29 20.31C834.59 20.31 835.45 19.3 835.45 18.12C835.45 16.91 834.59 15.91 833.29 15.91C831.99 15.91 831.13 16.91 831.13 18.12C831.13 19.3 831.99 20.31 833.29 20.31ZM819.58 8.44L819.58 19.94L826.36 19.94L826.36 23.81L819.01 23.81C816.41 23.81 815.37 22.45 815.37 20.28L815.37 8.44L819.58 8.44Z" fill="#1D1E1C" fill-opacity="1.000000" fill-rule="nonzero"/>
	</g>
	<rect id="Logo" width="132.000000" height="35.000000" transform="translate(980.270630 0.000000)" fill="#FFFFFF" fill-opacity="0"/>
	<g clip-path="url(#clip3_431)">
		<path id="Vector" d="M1010.79 12.25C1011.15 12.25 1011.27 12.37 1011.27 12.73L1011.27 20.64L1015.34 20.64C1015.69 20.64 1015.82 20.78 1015.82 21.12L1015.82 21.83C1015.82 22.17 1015.69 22.31 1015.34 22.31L1009.98 22.31C1009.63 22.31 1009.49 22.17 1009.49 21.83L1009.49 12.73C1009.49 12.37 1009.63 12.25 1009.98 12.25L1010.79 12.25Z" fill="#1D1E1C" fill-opacity="1.000000" fill-rule="nonzero"/>
		<path id="Vector" d="M1019.37 15.74C1019.37 13.42 1020.83 12.04 1023.37 12.04C1025.91 12.04 1027.37 13.42 1027.37 15.74L1027.37 18.82C1027.37 21.13 1025.9 22.52 1023.37 22.52C1020.84 22.52 1019.37 21.13 1019.37 18.82L1019.37 15.74ZM1025.68 15.74C1025.68 14.43 1024.88 13.74 1023.42 13.74C1021.96 13.74 1021.16 14.45 1021.16 15.74L1021.16 18.84C1021.16 20.15 1021.96 20.84 1023.42 20.84C1024.88 20.84 1025.68 20.12 1025.68 18.84L1025.68 15.74Z" fill="#1D1E1C" fill-opacity="1.000000" fill-rule="nonzero"/>
		<path id="Vector" d="M1039.28 16.79C1039.67 16.79 1039.76 16.92 1039.76 17.28L1039.76 19.17C1039.77 19.62 1039.68 20.07 1039.5 20.48C1039.31 20.88 1039.04 21.25 1038.69 21.54C1037.85 22.21 1036.78 22.55 1035.69 22.48C1033.11 22.48 1031.69 21.09 1031.69 18.78L1031.69 15.67C1031.69 13.39 1033.16 12 1035.69 12C1037.69 12 1039 12.79 1039.55 14.37C1039.57 14.42 1039.6 14.49 1039.6 14.56C1039.6 14.62 1039.59 14.69 1039.56 14.75C1039.53 14.81 1039.48 14.86 1039.43 14.9C1039.38 14.94 1039.31 14.97 1039.25 14.99L1038.47 15.26C1038.13 15.37 1037.99 15.31 1037.87 14.96C1037.69 14.53 1037.4 14.17 1037.01 13.93C1036.62 13.7 1036.16 13.6 1035.69 13.65C1034.23 13.65 1033.43 14.37 1033.43 15.65L1033.43 18.84C1033.43 20.14 1034.24 20.84 1035.69 20.84C1037.16 20.84 1038.06 20.16 1038.06 19.18L1038.06 18.45L1035.89 18.45C1035.53 18.45 1035.4 18.31 1035.4 17.95L1035.4 17.28C1035.4 16.92 1035.53 16.79 1035.89 16.79L1039.28 16.79Z" fill="#1D1E1C" fill-opacity="1.000000" fill-rule="nonzero"/>
		<path id="Vector" d="M1043.89 15.74C1043.89 13.42 1045.35 12.04 1047.89 12.04C1050.43 12.04 1051.89 13.42 1051.89 15.74L1051.89 18.82C1051.89 21.13 1050.42 22.52 1047.89 22.52C1045.36 22.52 1043.89 21.13 1043.89 18.82L1043.89 15.74ZM1050.19 15.74C1050.19 14.43 1049.39 13.74 1047.93 13.74C1046.49 13.74 1045.67 14.45 1045.67 15.74L1045.67 18.84C1045.67 20.15 1046.48 20.84 1047.93 20.84C1049.4 20.84 1050.19 20.12 1050.19 18.84L1050.19 15.74Z" fill="#1D1E1C" fill-opacity="1.000000" fill-rule="nonzero"/>
		<path id="Vector" d="M1056.6 12.54C1056.6 12.32 1056.67 12.25 1056.89 12.25L1057.35 12.25C1057.56 12.25 1057.62 12.32 1057.62 12.54L1057.62 22.02C1057.62 22.24 1057.62 22.31 1057.35 22.31L1056.89 22.31C1056.67 22.31 1056.6 22.24 1056.6 22.02L1056.6 12.54Z" fill="#1D1E1C" fill-opacity="1.000000" fill-rule="nonzero"/>
		<path id="Vector" d="M1066.73 12.25C1067.56 12.25 1068.36 12.58 1068.94 13.16C1069.54 13.75 1069.87 14.55 1069.87 15.38C1069.87 16.22 1069.54 17.02 1068.94 17.61C1068.36 18.19 1067.56 18.53 1066.73 18.53L1063.73 18.53L1063.73 22.02C1063.73 22.24 1063.68 22.31 1063.47 22.31L1063 22.31C1062.79 22.31 1062.71 22.24 1062.71 22.02L1062.71 12.54C1062.71 12.32 1062.79 12.25 1063 12.25L1066.73 12.25ZM1066.64 17.54C1066.93 17.54 1067.21 17.48 1067.47 17.37C1067.74 17.26 1067.98 17.1 1068.18 16.9C1068.38 16.69 1068.55 16.45 1068.65 16.19C1068.76 15.92 1068.81 15.64 1068.81 15.36C1068.81 15.07 1068.76 14.79 1068.65 14.52C1068.55 14.26 1068.38 14.02 1068.18 13.81C1067.98 13.61 1067.74 13.45 1067.47 13.34C1067.21 13.23 1066.93 13.17 1066.64 13.17L1063.64 13.17L1063.64 17.54L1066.64 17.54Z" fill="#1D1E1C" fill-opacity="1.000000" fill-rule="nonzero"/>
		<path id="Vector" d="M1077.68 12.05C1078.44 11.96 1079.23 12.13 1079.9 12.52C1080.56 12.91 1081.1 13.51 1081.4 14.23C1081.48 14.39 1081.4 14.52 1081.24 14.6L1080.8 14.8C1080.62 14.87 1080.55 14.86 1080.43 14.67C1080.21 14.13 1079.81 13.69 1079.32 13.39C1078.82 13.1 1078.26 12.97 1077.68 13.03C1075.99 13.03 1075.06 13.7 1075.06 14.9C1075.06 15.26 1075.18 15.62 1075.42 15.9C1075.65 16.19 1075.98 16.37 1076.34 16.44C1076.88 16.61 1077.43 16.72 1078 16.76C1078.68 16.79 1079.36 16.93 1080 17.17C1080.49 17.32 1080.92 17.64 1081.19 18.07C1081.49 18.5 1081.61 19.02 1081.56 19.54C1081.56 21.41 1080.19 22.54 1077.69 22.54C1076.88 22.63 1076.05 22.44 1075.36 22C1074.66 21.55 1074.14 20.89 1073.87 20.11C1073.85 20.07 1073.84 20.03 1073.84 19.99C1073.84 19.95 1073.85 19.91 1073.87 19.88C1073.88 19.84 1073.91 19.81 1073.93 19.78C1073.97 19.75 1074 19.74 1074.04 19.73L1074.48 19.57C1074.52 19.55 1074.55 19.54 1074.59 19.54C1074.63 19.55 1074.66 19.55 1074.69 19.57C1074.73 19.59 1074.76 19.61 1074.79 19.64C1074.81 19.67 1074.82 19.7 1074.84 19.74C1075.06 20.3 1075.46 20.78 1075.98 21.1C1076.49 21.43 1077.09 21.58 1077.69 21.54C1079.59 21.54 1080.52 20.88 1080.52 19.54C1080.54 19.18 1080.43 18.84 1080.22 18.56C1080 18.28 1079.69 18.08 1079.35 18.01C1078.82 17.85 1078.3 17.76 1077.76 17.73L1076.68 17.59C1076.34 17.51 1076.01 17.42 1075.68 17.32C1075.36 17.22 1075.05 17.06 1074.79 16.85C1074.53 16.6 1074.31 16.31 1074.18 15.98C1074.04 15.65 1073.98 15.29 1073.99 14.94C1074.06 13.19 1075.37 12.05 1077.68 12.05Z" fill="#1D1E1C" fill-opacity="1.000000" fill-rule="nonzero"/>
		<path id="Vector" d="M1086.94 18.88C1086.99 19.59 1087.3 20.26 1087.81 20.74C1088.34 21.23 1089.02 21.5 1089.73 21.5C1090.43 21.5 1091.12 21.23 1091.63 20.74C1092.15 20.26 1092.46 19.59 1092.5 18.88L1092.5 12.54C1092.5 12.32 1092.56 12.25 1092.79 12.25L1093.25 12.25C1093.47 12.25 1093.54 12.32 1093.54 12.54L1093.54 18.87C1093.54 21.14 1092.19 22.52 1089.73 22.52C1087.26 22.52 1085.92 21.14 1085.92 18.87L1085.92 12.54C1085.92 12.32 1085.99 12.25 1086.19 12.25L1086.67 12.25C1086.88 12.25 1086.94 12.32 1086.94 12.54L1086.94 18.88Z" fill="#1D1E1C" fill-opacity="1.000000" fill-rule="nonzero"/>
		<path id="Vector" d="M1107.34 12.25C1107.56 12.25 1107.63 12.32 1107.63 12.54L1107.63 22.02C1107.63 22.24 1107.56 22.31 1107.34 22.31L1106.92 22.31C1106.71 22.31 1106.64 22.24 1106.64 22.02L1106.64 16.25C1106.64 15.41 1106.69 14.57 1106.81 13.74L1106.75 13.74C1106.43 14.5 1106.06 15.23 1105.66 15.95L1103.51 19.74C1103.48 19.8 1103.43 19.86 1103.38 19.9C1103.31 19.94 1103.25 19.96 1103.18 19.95L1102.9 19.95C1102.82 19.96 1102.76 19.93 1102.69 19.9C1102.64 19.86 1102.59 19.8 1102.56 19.74L1100.38 15.9C1099.99 15.2 1099.66 14.48 1099.38 13.73L1099.31 13.73C1099.42 14.56 1099.48 15.41 1099.48 16.26L1099.48 22.02C1099.48 22.24 1099.41 22.31 1099.18 22.31L1098.8 22.31C1098.57 22.31 1098.51 22.24 1098.51 22.02L1098.51 12.54C1098.51 12.32 1098.57 12.25 1098.8 12.25L1099.16 12.25C1099.24 12.24 1099.32 12.26 1099.4 12.3C1099.47 12.34 1099.53 12.4 1099.56 12.48L1103.06 18.7L1106.54 12.54C1106.65 12.33 1106.71 12.3 1106.93 12.3L1107.34 12.25Z" fill="#1D1E1C" fill-opacity="1.000000" fill-rule="nonzero"/>
		<path id="Vector" d="M993 20.79L993 28.02C993 28.29 992.89 28.56 992.69 28.75C992.49 28.95 992.23 29.06 991.95 29.06C991.67 29.06 991.41 28.95 991.21 28.75C991.02 28.56 990.91 28.29 990.91 28.02L990.91 20.8C991.2 21.01 991.55 21.13 991.91 21.13C992.3 21.15 992.68 21.02 993 20.79ZM1001.9 18.7C1001.64 18.7 1001.38 18.8 1001.19 18.99C1001.01 19.18 1000.9 19.43 1000.9 19.7L1000.9 20.96C1000.9 21.23 1001.01 21.5 1001.21 21.69C1001.4 21.89 1001.67 22 1001.95 22C1002.22 22 1002.49 21.89 1002.68 21.69C1002.88 21.5 1002.99 21.23 1002.99 20.96L1002.99 19.75C1003 19.6 1002.98 19.46 1002.92 19.32C1002.87 19.19 1002.79 19.07 1002.69 18.97C1002.58 18.87 1002.46 18.79 1002.32 18.75C1002.19 18.7 1002.04 18.68 1001.9 18.7ZM988.64 23.53C988.28 23.51 987.93 23.4 987.64 23.18L987.64 30.43C987.64 30.71 987.75 30.98 987.94 31.18C988.14 31.37 988.41 31.49 988.69 31.49C988.96 31.49 989.23 31.37 989.43 31.18C989.63 30.98 989.74 30.71 989.74 30.43L989.74 23.24C989.41 23.45 989.02 23.55 988.64 23.53ZM998.64 16.53C998.5 16.52 998.37 16.54 998.24 16.59C998.11 16.63 997.99 16.71 997.9 16.8C997.8 16.89 997.72 17.01 997.67 17.13C997.61 17.26 997.59 17.39 997.59 17.53L997.59 23.1C997.59 23.37 997.7 23.64 997.89 23.84C998.09 24.03 998.36 24.14 998.64 24.14C998.91 24.14 999.18 24.03 999.38 23.84C999.58 23.64 999.69 23.37 999.69 23.1L999.69 17.6C999.69 17.45 999.67 17.31 999.62 17.17C999.56 17.04 999.48 16.92 999.38 16.82C999.27 16.72 999.15 16.64 999.01 16.59C998.88 16.55 998.73 16.53 998.59 16.54L998.64 16.53ZM995.32 18.66C994.94 18.66 994.57 18.54 994.27 18.33L994.27 25.6C994.27 25.87 994.38 26.14 994.57 26.34C994.77 26.53 995.04 26.64 995.32 26.64C995.59 26.64 995.86 26.53 996.06 26.34C996.26 26.14 996.37 25.87 996.37 25.6L996.37 18.34C996.05 18.57 995.66 18.69 995.27 18.68L995.32 18.66ZM986.37 24.24L986.37 3.92C986.36 3.68 986.26 3.44 986.09 3.27C985.91 3.09 985.67 3 985.43 3L985.21 3C984.96 3 984.72 3.09 984.54 3.27C984.37 3.44 984.27 3.68 984.27 3.92L984.27 24.24C984.27 24.48 984.37 24.72 984.54 24.9C984.72 25.08 984.96 25.17 985.21 25.17L985.43 25.17C985.68 25.17 985.91 25.08 986.09 24.9C986.27 24.72 986.37 24.48 986.37 24.24ZM988.75 22.76L988.53 22.76C988.28 22.76 988.04 22.66 987.86 22.48C987.69 22.3 987.59 22.06 987.59 21.82L987.59 6.35C987.59 6.1 987.69 5.86 987.86 5.69C988.04 5.51 988.28 5.41 988.53 5.41L988.75 5.41C988.99 5.41 989.23 5.51 989.41 5.69C989.58 5.86 989.68 6.1 989.69 6.35L989.69 21.84C989.69 22.08 989.59 22.32 989.41 22.5C989.23 22.68 989 22.78 988.75 22.78L988.75 22.76ZM992.06 20.37L991.83 20.37C991.58 20.37 991.34 20.28 991.17 20.1C990.99 19.93 990.9 19.69 990.9 19.45L990.9 8.75C990.89 8.62 990.92 8.5 990.96 8.39C991.01 8.27 991.08 8.17 991.16 8.08C991.25 7.99 991.35 7.92 991.47 7.88C991.58 7.83 991.7 7.81 991.83 7.81L992.06 7.81C992.3 7.81 992.54 7.91 992.71 8.08C992.89 8.26 992.99 8.5 992.99 8.75L992.99 19.45C992.99 19.69 992.89 19.93 992.71 20.1C992.54 20.28 992.3 20.37 992.06 20.37ZM995.37 17.92L995.16 17.92C994.91 17.92 994.67 17.83 994.49 17.65C994.32 17.48 994.22 17.24 994.22 17L994.22 11.24C994.21 11.11 994.23 10.98 994.27 10.86C994.31 10.74 994.38 10.62 994.47 10.53C994.56 10.44 994.66 10.36 994.78 10.31C994.9 10.26 995.03 10.23 995.16 10.24L995.38 10.24C995.63 10.24 995.86 10.33 996.04 10.51C996.22 10.69 996.32 10.93 996.32 11.17L996.32 16.98C996.32 17.1 996.29 17.22 996.25 17.34C996.2 17.45 996.13 17.56 996.04 17.65C995.96 17.73 995.85 17.8 995.74 17.85C995.62 17.9 995.5 17.92 995.38 17.92L995.37 17.92ZM998.69 15.78L998.47 15.78C998.22 15.78 997.98 15.68 997.8 15.5C997.63 15.32 997.53 15.08 997.53 14.84L997.53 13.35C997.53 13.1 997.63 12.86 997.8 12.69C997.98 12.51 998.22 12.41 998.47 12.41L998.69 12.41C998.93 12.41 999.17 12.51 999.35 12.69C999.52 12.86 999.62 13.1 999.63 13.35L999.63 14.84C999.63 15.08 999.53 15.32 999.35 15.5C999.18 15.67 998.94 15.77 998.7 15.78L998.69 15.78Z" fill="#1D1E1C" fill-opacity="1.000000" fill-rule="nonzero"/>
	</g>
</svg>
