<svg width="48.000000" height="48.000000" viewBox="0 0 48 48" fill="none" xmlns="http://www.w3.org/2000/svg" xmlns:xlink="http://www.w3.org/1999/xlink">
	<desc>
			Created with Pixso.
	</desc>
	<defs>
		<clipPath id="clip3_466">
			<rect id="UserList" width="48.000000" height="48.000000" transform="translate(-0.666626 0.000000)" fill="white" fill-opacity="0"/>
		</clipPath>
	</defs>
	<rect id="UserList" width="48.000000" height="48.000000" transform="translate(-0.666626 0.000000)" fill="#FFFFFF" fill-opacity="0"/>
	<g clip-path="url(#clip3_466)">
		<circle id="Ellipse 1" cx="30.000000" cy="30.000000" r="18.000000" fill="#FCBEDC" fill-opacity="1.000000"/>
		<path id="Vector" d="M26.33 15C26.33 14.6 26.49 14.22 26.77 13.93C27.05 13.65 27.43 13.5 27.83 13.5L45.83 13.5C46.23 13.5 46.61 13.65 46.89 13.93C47.17 14.22 47.33 14.6 47.33 15C47.33 15.39 47.17 15.77 46.89 16.06C46.61 16.34 46.23 16.5 45.83 16.5L27.83 16.5C27.43 16.5 27.05 16.34 26.77 16.06C26.49 15.77 26.33 15.39 26.33 15ZM45.83 22.5L27.83 22.5C27.43 22.5 27.05 22.65 26.77 22.93C26.49 23.22 26.33 23.6 26.33 24C26.33 24.39 26.49 24.77 26.77 25.06C27.05 25.34 27.43 25.5 27.83 25.5L45.83 25.5C46.23 25.5 46.61 25.34 46.89 25.06C47.17 24.77 47.33 24.39 47.33 24C47.33 23.6 47.17 23.22 46.89 22.93C46.61 22.65 46.23 22.5 45.83 22.5ZM45.83 31.5L32.33 31.5C31.93 31.5 31.55 31.65 31.27 31.93C30.99 32.22 30.83 32.6 30.83 33C30.83 33.39 30.99 33.77 31.27 34.06C31.55 34.34 31.93 34.5 32.33 34.5L45.83 34.5C46.23 34.5 46.61 34.34 46.89 34.06C47.17 33.77 47.33 33.39 47.33 33C47.33 32.6 47.17 32.22 46.89 31.93C46.61 31.65 46.23 31.5 45.83 31.5ZM19.82 26.62C21.31 25.47 22.4 23.89 22.94 22.09C23.49 20.29 23.45 18.37 22.85 16.59C22.24 14.81 21.1 13.27 19.57 12.17C18.04 11.08 16.21 10.49 14.33 10.49C12.45 10.49 10.62 11.08 9.09 12.17C7.56 13.27 6.41 14.81 5.81 16.59C5.2 18.37 5.17 20.29 5.71 22.09C6.26 23.89 7.35 25.47 8.84 26.62C4.97 28.26 1.92 31.55 0.88 35.62C0.82 35.84 0.81 36.07 0.86 36.3C0.9 36.52 1 36.73 1.14 36.91C1.28 37.09 1.46 37.24 1.67 37.34C1.87 37.44 2.1 37.5 2.33 37.5L26.33 37.5C26.56 37.5 26.78 37.44 26.99 37.34C27.19 37.24 27.37 37.09 27.51 36.91C27.66 36.73 27.75 36.52 27.8 36.3C27.84 36.07 27.84 35.84 27.78 35.62C26.73 31.55 23.69 28.26 19.82 26.62Z" fill="#1D1E1C" fill-opacity="1.000000" fill-rule="nonzero"/>
	</g>
</svg>
